<mxfile host="app.diagrams.net" modified="2023-04-12T02:44:16.672Z" agent="Mozilla/5.0 (Macintosh; Intel Mac OS X 10_15_7) AppleWebKit/537.36 (KHTML, like Gecko) Chrome/111.0.0.0 Safari/537.36" version="21.1.6" etag="yQ61NHqAba6ivXg2-CNv" type="github">
  <diagram name="第 1 页" id="pzSD2SOZSpQgi4VUFYPt">
    <mxGraphModel>
      <root>
        <mxCell id="0" />
        <mxCell id="1" parent="0" />
      </root>
    </mxGraphModel>
  </diagram>
</mxfile>
